<svg xmlns="http://www.w3.org/2000/svg" version="1.1" style="shape-rendering:geometricPrecision; text-rendering:geometricPrecision; image-rendering:optimizeQuality; fill-rule:evenodd; clip-rule:evenodd" xmlns:xlink="http://www.w3.org/1999/xlink" viewBox="807.42 251.48 726.1 1113.1" width="86" height="124">
<g><path style="opacity:0.994" fill="#ee5c08" d="M 1241.5,296.5 C 1243.05,296.821 1243.71,297.821 1243.5,299.5C 1259.68,299.17 1275.68,299.504 1291.5,300.5C 1275.5,300.5 1259.5,300.5 1243.5,300.5C 1243.5,316.5 1243.5,332.5 1243.5,348.5C 1243.17,348.5 1242.83,348.5 1242.5,348.5C 1226.09,348.182 1209.76,348.516 1193.5,349.5C 1193.5,332.833 1193.5,316.167 1193.5,299.5C 1209.5,299.5 1225.5,299.5 1241.5,299.5C 1241.5,298.5 1241.5,297.5 1241.5,296.5 Z"/></g>
<g><path style="opacity:1" fill="#ef790f" d="M 1291.5,300.5 C 1291.5,316.5 1291.5,332.5 1291.5,348.5C 1275.5,348.5 1259.5,348.5 1243.5,348.5C 1243.5,332.5 1243.5,316.5 1243.5,300.5C 1259.5,300.5 1275.5,300.5 1291.5,300.5 Z"/></g>
<g><path style="opacity:0.994" fill="#ef700d" d="M 1242.5,348.5 C 1242.5,364.5 1242.5,380.5 1242.5,396.5C 1226.83,396.5 1211.17,396.5 1195.5,396.5C 1195.5,412.833 1195.5,429.167 1195.5,445.5C 1195.17,445.5 1194.83,445.5 1194.5,445.5C 1194.83,428.991 1194.5,412.658 1193.5,396.5C 1193.5,380.833 1193.5,365.167 1193.5,349.5C 1209.76,348.516 1226.09,348.182 1242.5,348.5 Z"/></g>
<g><path style="opacity:0.999" fill="#ed5306" d="M 1388.5,541.5 C 1372.5,541.5 1356.5,541.5 1340.5,541.5C 1340.83,525.325 1340.5,509.325 1339.5,493.5C 1323.5,493.5 1307.5,493.5 1291.5,493.5C 1291.5,445.167 1291.5,396.833 1291.5,348.5C 1291.5,332.5 1291.5,316.5 1291.5,300.5C 1275.68,299.504 1259.68,299.17 1243.5,299.5C 1243.71,297.821 1243.05,296.821 1241.5,296.5C 1242.47,281.548 1242.8,266.548 1242.5,251.5C 1259.17,251.5 1275.83,251.5 1292.5,251.5C 1292.5,267.5 1292.5,283.5 1292.5,299.5C 1308.5,299.5 1324.5,299.5 1340.5,299.5C 1340.5,315.5 1340.5,331.5 1340.5,347.5C 1356.5,347.5 1372.5,347.5 1388.5,347.5C 1388.5,412.167 1388.5,476.833 1388.5,541.5 Z"/></g>
<g><path style="opacity:1" fill="#ee750e" d="M 1242.5,396.5 C 1242.5,412.833 1242.5,429.167 1242.5,445.5C 1226.83,445.5 1211.17,445.5 1195.5,445.5C 1195.5,429.167 1195.5,412.833 1195.5,396.5C 1211.17,396.5 1226.83,396.5 1242.5,396.5 Z"/></g>
<g><path style="opacity:0.987" fill="#ed5406" d="M 1193.5,396.5 C 1194.5,412.658 1194.83,428.991 1194.5,445.5C 1162.17,445.5 1129.83,445.5 1097.5,445.5C 1097.5,429.167 1097.5,412.833 1097.5,396.5C 1129.5,396.5 1161.5,396.5 1193.5,396.5 Z"/></g>
<g><path style="opacity:1" fill="#ee690b" d="M 1097.5,445.5 C 1129.83,445.5 1162.17,445.5 1194.5,445.5C 1194.5,461.5 1194.5,477.5 1194.5,493.5C 1178.5,493.5 1162.5,493.5 1146.5,493.5C 1130.5,493.5 1114.5,493.5 1098.5,493.5C 1098.5,509.5 1098.5,525.5 1098.5,541.5C 1098.5,557.833 1098.5,574.167 1098.5,590.5C 1082.5,590.5 1066.5,590.5 1050.5,590.5C 1050.5,606.5 1050.5,622.5 1050.5,638.5C 1050.17,638.5 1049.83,638.5 1049.5,638.5C 1049.5,622.167 1049.5,605.833 1049.5,589.5C 1065.5,589.5 1081.5,589.5 1097.5,589.5C 1097.5,557.167 1097.5,524.833 1097.5,492.5C 1097.5,476.833 1097.5,461.167 1097.5,445.5 Z"/></g>
<g><path style="opacity:1" fill="#f08e14" d="M 1242.5,348.5 C 1242.83,348.5 1243.17,348.5 1243.5,348.5C 1259.5,348.5 1275.5,348.5 1291.5,348.5C 1291.5,396.833 1291.5,445.167 1291.5,493.5C 1290.5,445.67 1290.17,397.67 1290.5,349.5C 1274.83,349.5 1259.17,349.5 1243.5,349.5C 1243.5,397.5 1243.5,445.5 1243.5,493.5C 1227.17,493.5 1210.83,493.5 1194.5,493.5C 1194.5,477.5 1194.5,461.5 1194.5,445.5C 1194.83,445.5 1195.17,445.5 1195.5,445.5C 1211.17,445.5 1226.83,445.5 1242.5,445.5C 1242.5,429.167 1242.5,412.833 1242.5,396.5C 1242.5,380.5 1242.5,364.5 1242.5,348.5 Z"/></g>
<g><path style="opacity:1" fill="#ef7b0f" d="M 1146.5,493.5 C 1146.5,509.5 1146.5,525.5 1146.5,541.5C 1130.5,541.5 1114.5,541.5 1098.5,541.5C 1098.5,525.5 1098.5,509.5 1098.5,493.5C 1114.5,493.5 1130.5,493.5 1146.5,493.5 Z"/></g>
<g><path style="opacity:0.995" fill="#f19918" d="M 1291.5,493.5 C 1307.5,493.5 1323.5,493.5 1339.5,493.5C 1339.5,493.833 1339.5,494.167 1339.5,494.5C 1323.5,494.5 1307.5,494.5 1291.5,494.5C 1291.5,510.5 1291.5,526.5 1291.5,542.5C 1291.83,574.338 1291.5,606.004 1290.5,637.5C 1290.5,622.167 1290.5,606.833 1290.5,591.5C 1242.83,591.5 1195.17,591.5 1147.5,591.5C 1131.21,590.529 1114.88,590.196 1098.5,590.5C 1098.5,574.167 1098.5,557.833 1098.5,541.5C 1114.5,541.5 1130.5,541.5 1146.5,541.5C 1146.5,525.5 1146.5,509.5 1146.5,493.5C 1162.5,493.5 1178.5,493.5 1194.5,493.5C 1210.83,493.5 1227.17,493.5 1243.5,493.5C 1243.5,445.5 1243.5,397.5 1243.5,349.5C 1259.17,349.5 1274.83,349.5 1290.5,349.5C 1290.17,397.67 1290.5,445.67 1291.5,493.5 Z"/></g>
<g><path style="opacity:1" fill="#f2a114" d="M 1339.5,494.5 C 1339.5,510.167 1339.5,525.833 1339.5,541.5C 1323.58,542.484 1307.58,542.817 1291.5,542.5C 1291.5,526.5 1291.5,510.5 1291.5,494.5C 1307.5,494.5 1323.5,494.5 1339.5,494.5 Z"/></g>
<g><path style="opacity:0.995" fill="#ee5106" d="M 1097.5,492.5 C 1097.5,524.833 1097.5,557.167 1097.5,589.5C 1081.5,589.5 1065.5,589.5 1049.5,589.5C 1049.5,605.833 1049.5,622.167 1049.5,638.5C 1017.5,638.5 985.5,638.5 953.5,638.5C 952.502,670.329 952.168,702.329 952.5,734.5C 936.5,734.5 920.5,734.5 904.5,734.5C 904.5,750.833 904.5,767.167 904.5,783.5C 888.5,783.5 872.5,783.5 856.5,783.5C 841.958,783.543 827.624,783.543 813.5,783.5C 814.407,772.981 814.073,762.647 812.5,752.5C 813.498,748.536 813.165,744.869 811.5,741.5C 812.223,739.218 812.557,736.884 812.5,734.5C 826.833,734.5 841.167,734.5 855.5,734.5C 855.5,718.5 855.5,702.5 855.5,686.5C 871.833,686.5 888.167,686.5 904.5,686.5C 904.5,670.167 904.5,653.833 904.5,637.5C 920.5,637.5 936.5,637.5 952.5,637.5C 952.5,605.5 952.5,573.5 952.5,541.5C 984.5,541.5 1016.5,541.5 1048.5,541.5C 1048.33,525.497 1048.5,509.497 1049,493.5C 1065.09,492.509 1081.26,492.175 1097.5,492.5 Z"/></g>
<g><path style="opacity:1" fill="#ef7a10" d="M 1339.5,542.5 C 1355.5,542.5 1371.5,542.5 1387.5,542.5C 1387.5,574.5 1387.5,606.5 1387.5,638.5C 1371.5,638.5 1355.5,638.5 1339.5,638.5C 1339.5,606.5 1339.5,574.5 1339.5,542.5 Z"/></g>
<g><path style="opacity:1" fill="#ef660b" d="M 1339.5,493.5 C 1340.5,509.325 1340.83,525.325 1340.5,541.5C 1356.5,541.5 1372.5,541.5 1388.5,541.5C 1388.5,573.833 1388.5,606.167 1388.5,638.5C 1388.17,638.5 1387.83,638.5 1387.5,638.5C 1387.5,606.5 1387.5,574.5 1387.5,542.5C 1371.5,542.5 1355.5,542.5 1339.5,542.5C 1339.5,542.167 1339.5,541.833 1339.5,541.5C 1339.5,525.833 1339.5,510.167 1339.5,494.5C 1339.5,494.167 1339.5,493.833 1339.5,493.5 Z"/></g>
<g><path style="opacity:0.995" fill="#ef5206" d="M 1388.5,541.5 C 1404.83,541.5 1421.17,541.5 1437.5,541.5C 1437.5,573.833 1437.5,606.167 1437.5,638.5C 1421.17,638.5 1404.83,638.5 1388.5,638.5C 1388.5,606.167 1388.5,573.833 1388.5,541.5 Z"/></g>
<g><path style="opacity:1" fill="#f18f14" d="M 1098.5,590.5 C 1098.5,606.5 1098.5,622.5 1098.5,638.5C 1082.5,638.5 1066.5,638.5 1050.5,638.5C 1050.5,622.5 1050.5,606.5 1050.5,590.5C 1066.5,590.5 1082.5,590.5 1098.5,590.5 Z"/></g>
<g><path style="opacity:0.978" fill="#f19c15" d="M 1098.5,590.5 C 1114.88,590.196 1131.21,590.529 1147.5,591.5C 1147.5,607.5 1147.5,623.5 1147.5,639.5C 1131.5,639.5 1115.5,639.5 1099.5,639.5C 1099.5,638.833 1099.17,638.5 1098.5,638.5C 1098.5,622.5 1098.5,606.5 1098.5,590.5 Z"/></g>
<g><path style="opacity:0.995" fill="#f09816" d="M 1049.5,638.5 C 1049.83,638.5 1050.17,638.5 1050.5,638.5C 1066.5,638.5 1082.5,638.5 1098.5,638.5C 1099.17,638.5 1099.5,638.833 1099.5,639.5C 1099.82,655.411 1099.49,671.244 1098.5,687C 1082.5,687.5 1066.5,687.667 1050.5,687.5C 1050.5,703.167 1050.5,718.833 1050.5,734.5C 1049.52,750.422 1049.18,766.422 1049.5,782.5C 1049.17,782.5 1048.83,782.5 1048.5,782.5C 1048.5,767.167 1048.5,751.833 1048.5,736.5C 1033.17,736.5 1017.83,736.5 1002.5,736.5C 986.244,735.516 969.911,735.182 953.5,735.5C 953.5,719.167 953.5,702.833 953.5,686.5C 969.5,686.5 985.5,686.5 1001.5,686.5C 1001.5,670.833 1001.5,655.167 1001.5,639.5C 1017.68,639.83 1033.68,639.496 1049.5,638.5 Z"/></g>
<g><path style="opacity:1" fill="#f08512" d="M 953.5,638.5 C 985.5,638.5 1017.5,638.5 1049.5,638.5C 1033.68,639.496 1017.68,639.83 1001.5,639.5C 1001.5,655.167 1001.5,670.833 1001.5,686.5C 985.5,686.5 969.5,686.5 953.5,686.5C 953.5,670.5 953.5,654.5 953.5,638.5 Z"/></g>
<g><path style="opacity:0.995" fill="#f09918" d="M 1339.5,541.5 C 1339.5,541.833 1339.5,542.167 1339.5,542.5C 1339.5,574.5 1339.5,606.5 1339.5,638.5C 1355.5,638.5 1371.5,638.5 1387.5,638.5C 1387.33,654.503 1387.5,670.503 1388,686.5C 1403.76,687.491 1419.59,687.825 1435.5,687.5C 1435.17,719.671 1435.5,751.671 1436.5,783.5C 1452.83,783.5 1469.17,783.5 1485.5,783.5C 1485.5,783.833 1485.5,784.167 1485.5,784.5C 1469.17,784.5 1452.83,784.5 1436.5,784.5C 1436.5,800.167 1436.5,815.833 1436.5,831.5C 1420.17,831.5 1403.83,831.5 1387.5,831.5C 1387.5,815.167 1387.5,798.833 1387.5,782.5C 1387.5,767.167 1387.5,751.833 1387.5,736.5C 1371.83,736.5 1356.17,736.5 1340.5,736.5C 1340.17,735.5 1339.5,734.833 1338.5,734.5C 1338.5,702.833 1338.5,671.167 1338.5,639.5C 1322.13,640.151 1306.13,639.485 1290.5,637.5C 1291.5,606.004 1291.83,574.338 1291.5,542.5C 1307.58,542.817 1323.58,542.484 1339.5,541.5 Z"/></g>
<g><path style="opacity:0.995" fill="#f07c11" d="M 1387.5,638.5 C 1387.83,638.5 1388.17,638.5 1388.5,638.5C 1404.83,638.5 1421.17,638.5 1437.5,638.5C 1437.5,654.5 1437.5,670.5 1437.5,686.5C 1436.5,702.658 1436.17,718.991 1436.5,735.5C 1436.5,751.5 1436.5,767.5 1436.5,783.5C 1435.5,751.671 1435.17,719.671 1435.5,687.5C 1419.59,687.825 1403.76,687.491 1388,686.5C 1387.5,670.503 1387.33,654.503 1387.5,638.5 Z"/></g>
<g><path style="opacity:0.004" fill="#000000" d="M 807.5,686.5 C 808.525,686.897 808.692,687.563 808,688.5C 807.536,687.906 807.369,687.239 807.5,686.5 Z"/></g>
<g><path style="opacity:1" fill="#ef6a0c" d="M 953.5,638.5 C 953.5,654.5 953.5,670.5 953.5,686.5C 953.5,702.833 953.5,719.167 953.5,735.5C 937.5,735.5 921.5,735.5 905.5,735.5C 905.83,751.675 905.496,767.675 904.5,783.5C 904.5,767.167 904.5,750.833 904.5,734.5C 920.5,734.5 936.5,734.5 952.5,734.5C 952.168,702.329 952.502,670.329 953.5,638.5 Z"/></g>
<g><path style="opacity:1" fill="#d54a06" d="M 1437.5,686.5 C 1453.5,686.5 1469.5,686.5 1485.5,686.5C 1485.5,702.833 1485.5,719.167 1485.5,735.5C 1469.17,735.5 1452.83,735.5 1436.5,735.5C 1436.17,718.991 1436.5,702.658 1437.5,686.5 Z"/></g>
<g><path style="opacity:0.987" fill="#f7c215" d="M 1050.5,734.5 C 1114.83,734.5 1179.17,734.5 1243.5,734.5C 1243.5,750.833 1243.5,767.167 1243.5,783.5C 1227.17,783.5 1210.83,783.5 1194.5,783.5C 1162.17,783.5 1129.83,783.5 1097.5,783.5C 1097.5,799.5 1097.5,815.5 1097.5,831.5C 1065.5,831.5 1033.5,831.5 1001.5,831.5C 1002.48,815.911 1002.82,800.244 1002.5,784.5C 1017.84,784.667 1033.17,784.5 1048.5,784C 1049.06,783.617 1049.39,783.117 1049.5,782.5C 1049.18,766.422 1049.52,750.422 1050.5,734.5 Z"/></g>
<g><path style="opacity:0.986" fill="#dcd216" d="M 1243.5,734.5 C 1259.5,734.5 1275.5,734.5 1291.5,734.5C 1291.5,750.833 1291.5,767.167 1291.5,783.5C 1275.5,783.5 1259.5,783.5 1243.5,783.5C 1243.5,767.167 1243.5,750.833 1243.5,734.5 Z"/></g>
<g><path style="opacity:0.985" fill="#a8a80c" d="M 1291.5,734.5 C 1307.17,734.5 1322.83,734.5 1338.5,734.5C 1339.5,734.833 1340.17,735.5 1340.5,736.5C 1340.5,751.833 1340.5,767.167 1340.5,782.5C 1340.5,783.167 1340.17,783.5 1339.5,783.5C 1323.5,783.5 1307.5,783.5 1291.5,783.5C 1291.5,767.167 1291.5,750.833 1291.5,734.5 Z"/></g>
<g><path style="opacity:0.998" fill="#f49415" d="M 953.5,735.5 C 969.911,735.182 986.244,735.516 1002.5,736.5C 1002.5,751.833 1002.5,767.167 1002.5,782.5C 1002.17,782.5 1001.83,782.5 1001.5,782.5C 985.5,782.5 969.5,782.5 953.5,782.5C 953.5,766.833 953.5,751.167 953.5,735.5 Z"/></g>
<g><path style="opacity:1" fill="#ec5207" d="M 1436.5,735.5 C 1452.83,735.5 1469.17,735.5 1485.5,735.5C 1485.5,751.5 1485.5,767.5 1485.5,783.5C 1469.17,783.5 1452.83,783.5 1436.5,783.5C 1436.5,767.5 1436.5,751.5 1436.5,735.5 Z"/></g>
<g><path style="opacity:0.997" fill="#f7bd12" d="M 1001.5,782.5 C 1001.83,782.5 1002.17,782.5 1002.5,782.5C 1017.83,782.5 1033.17,782.5 1048.5,782.5C 1048.83,782.5 1049.17,782.5 1049.5,782.5C 1049.39,783.117 1049.06,783.617 1048.5,784C 1033.17,784.5 1017.84,784.667 1002.5,784.5C 1002.82,800.244 1002.48,815.911 1001.5,831.5C 985.5,831.5 969.5,831.5 953.5,831.5C 953.5,815.5 953.5,799.5 953.5,783.5C 969.675,783.83 985.675,783.496 1001.5,782.5 Z"/></g>
<g><path style="opacity:1" fill="#e3db28" d="M 1194.5,783.5 C 1210.83,783.5 1227.17,783.5 1243.5,783.5C 1259.5,783.5 1275.5,783.5 1291.5,783.5C 1291.5,799.5 1291.5,815.5 1291.5,831.5C 1259.17,831.5 1226.83,831.5 1194.5,831.5C 1194.5,815.5 1194.5,799.5 1194.5,783.5 Z"/></g>
<g><path style="opacity:1" fill="#d3da17" d="M 1194.5,783.5 C 1194.5,799.5 1194.5,815.5 1194.5,831.5C 1178.5,831.5 1162.5,831.5 1146.5,831.5C 1146.5,815.833 1146.5,800.167 1146.5,784.5C 1130.5,784.5 1114.5,784.5 1098.5,784.5C 1098.5,800.167 1098.5,815.833 1098.5,831.5C 1098.5,847.5 1098.5,863.5 1098.5,879.5C 1114.5,879.5 1130.5,879.5 1146.5,879.5C 1162.5,879.5 1178.5,879.5 1194.5,879.5C 1194.5,879.833 1194.5,880.167 1194.5,880.5C 1162.5,880.5 1130.5,880.5 1098.5,880.5C 1082.17,880.5 1065.83,880.5 1049.5,880.5C 1033.5,880.5 1017.5,880.5 1001.5,880.5C 1001.5,864.167 1001.5,847.833 1001.5,831.5C 1033.5,831.5 1065.5,831.5 1097.5,831.5C 1097.5,815.5 1097.5,799.5 1097.5,783.5C 1129.83,783.5 1162.17,783.5 1194.5,783.5 Z"/></g>
<g><path style="opacity:1" fill="#cddc14" d="M 1146.5,831.5 C 1130.5,831.5 1114.5,831.5 1098.5,831.5C 1098.5,815.833 1098.5,800.167 1098.5,784.5C 1114.5,784.5 1130.5,784.5 1146.5,784.5C 1146.5,800.167 1146.5,815.833 1146.5,831.5 Z"/></g>
<g><path style="opacity:0.986" fill="#e1d015" d="M 1291.5,783.5 C 1307.5,783.5 1323.5,783.5 1339.5,783.5C 1339.83,800.009 1339.5,816.342 1338.5,832.5C 1323.17,832.5 1307.83,832.5 1292.5,832.5C 1292.17,832.5 1291.83,832.5 1291.5,832.5C 1291.5,832.167 1291.5,831.833 1291.5,831.5C 1291.5,815.5 1291.5,799.5 1291.5,783.5 Z"/></g>
<g><path style="opacity:0.995" fill="#ec5506" d="M 813.5,783.5 C 827.624,783.543 841.958,783.543 856.5,783.5C 856.5,815.833 856.5,848.167 856.5,880.5C 842.5,880.5 828.5,880.5 814.5,880.5C 816.436,869.646 816.436,858.812 814.5,848C 814.713,837.408 815.047,826.908 815.5,816.5C 814.712,812.704 814.046,808.871 813.5,805C 814.283,797.857 814.283,790.69 813.5,783.5 Z"/></g>
<g><path style="opacity:1" fill="#f19a17" d="M 953.5,735.5 C 953.5,751.167 953.5,766.833 953.5,782.5C 969.5,782.5 985.5,782.5 1001.5,782.5C 985.675,783.496 969.675,783.83 953.5,783.5C 953.5,799.5 953.5,815.5 953.5,831.5C 937.167,831.5 920.833,831.5 904.5,831.5C 904.5,847.833 904.5,864.167 904.5,880.5C 888.5,880.5 872.5,880.5 856.5,880.5C 856.5,848.167 856.5,815.833 856.5,783.5C 872.5,783.5 888.5,783.5 904.5,783.5C 905.496,767.675 905.83,751.675 905.5,735.5C 921.5,735.5 937.5,735.5 953.5,735.5 Z"/></g>
<g><path style="opacity:0.998" fill="#f6c013" d="M 1340.5,782.5 C 1356.17,782.5 1371.83,782.5 1387.5,782.5C 1387.5,798.833 1387.5,815.167 1387.5,831.5C 1403.83,831.5 1420.17,831.5 1436.5,831.5C 1436.5,847.833 1436.5,864.167 1436.5,880.5C 1420.17,880.5 1403.83,880.5 1387.5,880.5C 1371.09,880.818 1354.76,880.484 1338.5,879.5C 1338.5,863.833 1338.5,848.167 1338.5,832.5C 1339.5,816.342 1339.83,800.009 1339.5,783.5C 1340.17,783.5 1340.5,783.167 1340.5,782.5 Z"/></g>
<g><path style="opacity:1" fill="#f09b18" d="M 1485.5,784.5 C 1485.5,799.833 1485.5,815.167 1485.5,830.5C 1484.52,847.089 1484.18,863.756 1484.5,880.5C 1484.5,896.5 1484.5,912.5 1484.5,928.5C 1468.5,928.5 1452.5,928.5 1436.5,928.5C 1436.5,912.5 1436.5,896.5 1436.5,880.5C 1436.5,864.167 1436.5,847.833 1436.5,831.5C 1436.5,815.833 1436.5,800.167 1436.5,784.5C 1452.83,784.5 1469.17,784.5 1485.5,784.5 Z"/></g>
<g><path style="opacity:0.993" fill="#b03e04" d="M 1485.5,830.5 C 1501.5,830.5 1517.5,830.5 1533.5,830.5C 1533.5,847.167 1533.5,863.833 1533.5,880.5C 1517.17,880.5 1500.83,880.5 1484.5,880.5C 1484.18,863.756 1484.52,847.089 1485.5,830.5 Z"/></g>
<g><path style="opacity:1" fill="#f7c313" d="M 953.5,831.5 C 953.5,847.833 953.5,864.167 953.5,880.5C 937.167,880.5 920.833,880.5 904.5,880.5C 904.5,864.167 904.5,847.833 904.5,831.5C 920.833,831.5 937.167,831.5 953.5,831.5 Z"/></g>
<g><path style="opacity:1" fill="#f2c614" d="M 953.5,831.5 C 969.5,831.5 985.5,831.5 1001.5,831.5C 1001.5,847.833 1001.5,864.167 1001.5,880.5C 985.5,880.5 969.5,880.5 953.5,880.5C 953.5,864.167 953.5,847.833 953.5,831.5 Z"/></g>
<g><path style="opacity:1" fill="#cfdc14" d="M 1002.5,832.5 C 1034.17,832.5 1065.83,832.5 1097.5,832.5C 1097.5,848.167 1097.5,863.833 1097.5,879.5C 1065.83,879.5 1034.17,879.5 1002.5,879.5C 1002.5,863.833 1002.5,848.167 1002.5,832.5 Z"/></g>
<g><path style="opacity:1" fill="#ebe541" d="M 1098.5,831.5 C 1114.5,831.5 1130.5,831.5 1146.5,831.5C 1162.5,831.5 1178.5,831.5 1194.5,831.5C 1194.5,831.833 1194.5,832.167 1194.5,832.5C 1178.5,832.5 1162.5,832.5 1146.5,832.5C 1146.5,848.167 1146.5,863.833 1146.5,879.5C 1130.5,879.5 1114.5,879.5 1098.5,879.5C 1098.5,863.5 1098.5,847.5 1098.5,831.5 Z"/></g>
<g><path style="opacity:1" fill="#eee649" d="M 1194.5,832.5 C 1194.5,848.167 1194.5,863.833 1194.5,879.5C 1178.5,879.5 1162.5,879.5 1146.5,879.5C 1146.5,863.833 1146.5,848.167 1146.5,832.5C 1162.5,832.5 1178.5,832.5 1194.5,832.5 Z"/></g>
<g><path style="opacity:1" fill="#d7dd1d" d="M 1194.5,831.5 C 1226.83,831.5 1259.17,831.5 1291.5,831.5C 1291.5,831.833 1291.5,832.167 1291.5,832.5C 1275.5,832.5 1259.5,832.5 1243.5,832.5C 1243.5,848.167 1243.5,863.833 1243.5,879.5C 1227.17,879.5 1210.83,879.5 1194.5,879.5C 1194.5,863.833 1194.5,848.167 1194.5,832.5C 1194.5,832.167 1194.5,831.833 1194.5,831.5 Z"/></g>
<g><path style="opacity:0.992" fill="#ef8211" d="M 814.5,880.5 C 828.5,880.5 842.5,880.5 856.5,880.5C 856.5,896.5 856.5,912.5 856.5,928.5C 841.833,928.5 827.167,928.5 812.5,928.5C 813.175,921.801 813.175,915.134 812.5,908.5C 813.685,906.289 814.685,903.955 815.5,901.5C 814.781,898.687 814.114,895.854 813.5,893C 814.362,888.95 814.695,884.783 814.5,880.5 Z"/></g>
<g><path style="opacity:1" fill="#f4af14" d="M 856.5,880.5 C 872.5,880.5 888.5,880.5 904.5,880.5C 904.5,896.5 904.5,912.5 904.5,928.5C 888.833,928.5 873.167,928.5 857.5,928.5C 857.167,928.5 856.833,928.5 856.5,928.5C 856.5,912.5 856.5,896.5 856.5,880.5 Z"/></g>
<g><path style="opacity:1" fill="#e6cd14" d="M 904.5,880.5 C 920.833,880.5 937.167,880.5 953.5,880.5C 953.5,896.5 953.5,912.5 953.5,928.5C 937.5,928.5 921.5,928.5 905.5,928.5C 905.5,944.5 905.5,960.5 905.5,976.5C 905.167,976.5 904.833,976.5 904.5,976.5C 904.5,960.5 904.5,944.5 904.5,928.5C 904.5,912.5 904.5,896.5 904.5,880.5 Z"/></g>
<g><path style="opacity:1" fill="#dfe12f" d="M 953.5,880.5 C 969.5,880.5 985.5,880.5 1001.5,880.5C 1001.5,896.5 1001.5,912.5 1001.5,928.5C 985.5,928.5 969.5,928.5 953.5,928.5C 953.5,912.5 953.5,896.5 953.5,880.5 Z"/></g>
<g><path style="opacity:1" fill="#f2e84c" d="M 1001.5,880.5 C 1017.5,880.5 1033.5,880.5 1049.5,880.5C 1049.5,896.5 1049.5,912.5 1049.5,928.5C 1033.5,928.5 1017.5,928.5 1001.5,928.5C 1001.5,912.5 1001.5,896.5 1001.5,880.5 Z"/></g>
<g><path style="opacity:1" fill="#e9e342" d="M 1049.5,880.5 C 1065.83,880.5 1082.17,880.5 1098.5,880.5C 1098.5,896.5 1098.5,912.5 1098.5,928.5C 1082.17,928.5 1065.83,928.5 1049.5,928.5C 1049.5,912.5 1049.5,896.5 1049.5,880.5 Z"/></g>
<g><path style="opacity:1" fill="#cfdc16" d="M 1291.5,832.5 C 1291.83,832.5 1292.17,832.5 1292.5,832.5C 1292.5,848.167 1292.5,863.833 1292.5,879.5C 1307.83,879.5 1323.17,879.5 1338.5,879.5C 1354.76,880.484 1371.09,880.818 1387.5,880.5C 1387.5,896.5 1387.5,912.5 1387.5,928.5C 1355.5,928.5 1323.5,928.5 1291.5,928.5C 1291.5,944.5 1291.5,960.5 1291.5,976.5C 1243,976.168 1194.66,976.501 1146.5,977.5C 1145.5,992.991 1145.17,1008.66 1145.5,1024.5C 1097.17,1024.5 1048.83,1024.5 1000.5,1024.5C 1000.5,1008.83 1000.5,993.167 1000.5,977.5C 985.167,977.5 969.833,977.5 954.5,977.5C 953.516,961.244 953.182,944.911 953.5,928.5C 969.5,928.5 985.5,928.5 1001.5,928.5C 1017.5,928.5 1033.5,928.5 1049.5,928.5C 1065.83,928.5 1082.17,928.5 1098.5,928.5C 1098.5,912.5 1098.5,896.5 1098.5,880.5C 1130.5,880.5 1162.5,880.5 1194.5,880.5C 1194.5,896.5 1194.5,912.5 1194.5,928.5C 1211.01,928.83 1227.34,928.496 1243.5,927.5C 1259.17,927.5 1274.83,927.5 1290.5,927.5C 1290.5,911.833 1290.5,896.167 1290.5,880.5C 1274.83,880.5 1259.17,880.5 1243.5,880.5C 1243.5,880.167 1243.5,879.833 1243.5,879.5C 1243.5,863.833 1243.5,848.167 1243.5,832.5C 1259.5,832.5 1275.5,832.5 1291.5,832.5 Z M 1243.5,880.5 C 1259.17,880.5 1274.83,880.5 1290.5,880.5C 1290.5,896.167 1290.5,911.833 1290.5,927.5C 1274.83,927.5 1259.17,927.5 1243.5,927.5C 1243.5,911.833 1243.5,896.167 1243.5,880.5 Z"/></g>
<g><path style="opacity:0.991" fill="#fefe00" d="M 1194.5,879.5 C 1210.83,879.5 1227.17,879.5 1243.5,879.5C 1243.5,879.833 1243.5,880.167 1243.5,880.5C 1243.5,896.167 1243.5,911.833 1243.5,927.5C 1227.34,928.496 1211.01,928.83 1194.5,928.5C 1194.5,912.5 1194.5,896.5 1194.5,880.5C 1194.5,880.167 1194.5,879.833 1194.5,879.5 Z"/></g>
<g><path style="opacity:0.988" fill="#ee690b" d="M 1484.5,880.5 C 1500.83,880.5 1517.17,880.5 1533.5,880.5C 1533.5,896.5 1533.5,912.5 1533.5,928.5C 1517.17,928.5 1500.83,928.5 1484.5,928.5C 1484.5,912.5 1484.5,896.5 1484.5,880.5 Z"/></g>
<g><path style="opacity:1" fill="#f3c414" d="M 857.5,928.5 C 873.167,928.5 888.833,928.5 904.5,928.5C 904.5,944.5 904.5,960.5 904.5,976.5C 888.833,976.5 873.167,976.5 857.5,976.5C 857.5,960.5 857.5,944.5 857.5,928.5 Z"/></g>
<g><path style="opacity:1" fill="#e4d019" d="M 1387.5,880.5 C 1403.83,880.5 1420.17,880.5 1436.5,880.5C 1436.5,896.5 1436.5,912.5 1436.5,928.5C 1436.5,944.5 1436.5,960.5 1436.5,976.5C 1420.5,976.5 1404.5,976.5 1388.5,976.5C 1388.5,992.5 1388.5,1008.5 1388.5,1024.5C 1404.32,1025.5 1420.32,1025.83 1436.5,1025.5C 1436.5,1041.5 1436.5,1057.5 1436.5,1073.5C 1420.5,1073.5 1404.5,1073.5 1388.5,1073.5C 1387.83,1073.5 1387.5,1073.17 1387.5,1072.5C 1387.5,1056.83 1387.5,1041.17 1387.5,1025.5C 1387.5,1009.17 1387.5,992.833 1387.5,976.5C 1387.5,960.5 1387.5,944.5 1387.5,928.5C 1387.5,912.5 1387.5,896.5 1387.5,880.5 Z"/></g>
<g><path style="opacity:1" fill="#f6bf15" d="M 1436.5,928.5 C 1452.5,928.5 1468.5,928.5 1484.5,928.5C 1484.5,960.833 1484.5,993.167 1484.5,1025.5C 1452.57,1024.51 1420.57,1024.17 1388.5,1024.5C 1388.5,1008.5 1388.5,992.5 1388.5,976.5C 1404.5,976.5 1420.5,976.5 1436.5,976.5C 1436.5,960.5 1436.5,944.5 1436.5,928.5 Z"/></g>
<g><path style="opacity:0.991" fill="#ef7910" d="M 1484.5,928.5 C 1500.83,928.5 1517.17,928.5 1533.5,928.5C 1533.5,992.833 1533.5,1057.17 1533.5,1121.5C 1517.17,1121.5 1500.83,1121.5 1484.5,1121.5C 1484.5,1105.5 1484.5,1089.5 1484.5,1073.5C 1484.5,1057.5 1484.5,1041.5 1484.5,1025.5C 1484.5,993.167 1484.5,960.833 1484.5,928.5 Z"/></g>
<g><path style="opacity:0.999" fill="#d9df25" d="M 953.5,928.5 C 953.182,944.911 953.516,961.244 954.5,977.5C 938.167,977.5 921.833,977.5 905.5,977.5C 905.5,977.167 905.5,976.833 905.5,976.5C 905.5,960.5 905.5,944.5 905.5,928.5C 921.5,928.5 937.5,928.5 953.5,928.5 Z"/></g>
<g><path style="opacity:1" fill="#e8e33f" d="M 1387.5,928.5 C 1387.5,944.5 1387.5,960.5 1387.5,976.5C 1355.5,976.5 1323.5,976.5 1291.5,976.5C 1291.5,960.5 1291.5,944.5 1291.5,928.5C 1323.5,928.5 1355.5,928.5 1387.5,928.5 Z"/></g>
<g><path style="opacity:0.994" fill="#f19a18" d="M 812.5,928.5 C 827.167,928.5 841.833,928.5 856.5,928.5C 856.5,976.833 856.5,1025.17 856.5,1073.5C 856.5,1089.5 856.5,1105.5 856.5,1121.5C 856.5,1137.83 856.5,1154.17 856.5,1170.5C 856.167,1170.5 855.833,1170.5 855.5,1170.5C 839.5,1170.5 823.5,1170.5 807.5,1170.5C 807.5,1154.17 807.5,1137.83 807.5,1121.5C 823.5,1121.5 839.5,1121.5 855.5,1121.5C 855.5,1105.5 855.5,1089.5 855.5,1073.5C 839.5,1073.5 823.5,1073.5 807.5,1073.5C 807.333,1053.5 807.5,1033.5 808,1013.5C 809.984,1009.75 811.15,1005.75 811.5,1001.5C 810.799,996.141 810.466,990.807 810.5,985.5C 812.872,976.239 812.872,967.239 810.5,958.5C 811.006,954.965 811.672,951.465 812.5,948C 811.344,941.514 811.344,935.014 812.5,928.5 Z"/></g>
<g><path style="opacity:1" fill="#f1e74e" d="M 1146.5,977.5 C 1178.83,977.5 1211.17,977.5 1243.5,977.5C 1243.5,993.167 1243.5,1008.83 1243.5,1024.5C 1211.17,1024.5 1178.83,1024.5 1146.5,1024.5C 1146.5,1008.83 1146.5,993.167 1146.5,977.5 Z"/></g>
<g><path style="opacity:1" fill="#ece445" d="M 1146.5,977.5 C 1194.66,976.501 1243,976.168 1291.5,976.5C 1291.5,992.5 1291.5,1008.5 1291.5,1024.5C 1275.5,1024.5 1259.5,1024.5 1243.5,1024.5C 1243.5,1008.83 1243.5,993.167 1243.5,977.5C 1211.17,977.5 1178.83,977.5 1146.5,977.5 Z"/></g>
<g><path style="opacity:1" fill="#f6c216" d="M 856.5,928.5 C 856.833,928.5 857.167,928.5 857.5,928.5C 857.5,944.5 857.5,960.5 857.5,976.5C 873.167,976.5 888.833,976.5 904.5,976.5C 904.833,976.5 905.167,976.5 905.5,976.5C 905.5,976.833 905.5,977.167 905.5,977.5C 905.5,993.167 905.5,1008.83 905.5,1024.5C 904.504,1040.66 904.17,1056.99 904.5,1073.5C 888.5,1073.5 872.5,1073.5 856.5,1073.5C 856.5,1025.17 856.5,976.833 856.5,928.5 Z"/></g>
<g><path style="opacity:0.989" fill="#d3df13" d="M 905.5,1024.5 C 921.5,1024.5 937.5,1024.5 953.5,1024.5C 953.5,1040.83 953.5,1057.17 953.5,1073.5C 937.5,1073.5 921.5,1073.5 905.5,1073.5C 905.5,1057.17 905.5,1040.83 905.5,1024.5 Z"/></g>
<g><path style="opacity:0.993" fill="#cfdb15" d="M 1291.5,976.5 C 1323.5,976.5 1355.5,976.5 1387.5,976.5C 1387.5,992.833 1387.5,1009.17 1387.5,1025.5C 1355.83,1025.5 1324.17,1025.5 1292.5,1025.5C 1292.5,1041.17 1292.5,1056.83 1292.5,1072.5C 1324.17,1072.5 1355.83,1072.5 1387.5,1072.5C 1387.5,1073.17 1387.83,1073.5 1388.5,1073.5C 1388.5,1089.5 1388.5,1105.5 1388.5,1121.5C 1388.17,1121.5 1387.83,1121.5 1387.5,1121.5C 1355.5,1121.5 1323.5,1121.5 1291.5,1121.5C 1291.5,1137.5 1291.5,1153.5 1291.5,1169.5C 1259.5,1169.5 1227.5,1169.5 1195.5,1169.5C 1195.8,1153.12 1195.47,1136.79 1194.5,1120.5C 1210.5,1120.5 1226.5,1120.5 1242.5,1120.5C 1242.5,1105.17 1242.5,1089.83 1242.5,1074.5C 1210.83,1074.5 1179.17,1074.5 1147.5,1074.5C 1147.5,1073.83 1147.17,1073.5 1146.5,1073.5C 1146.5,1057.5 1146.5,1041.5 1146.5,1025.5C 1195,1025.83 1243.34,1025.5 1291.5,1024.5C 1291.5,1008.5 1291.5,992.5 1291.5,976.5 Z"/></g>
<g><path style="opacity:1" fill="#ecc816" d="M 1388.5,1024.5 C 1420.57,1024.17 1452.57,1024.51 1484.5,1025.5C 1484.5,1041.5 1484.5,1057.5 1484.5,1073.5C 1468.5,1073.5 1452.5,1073.5 1436.5,1073.5C 1436.5,1057.5 1436.5,1041.5 1436.5,1025.5C 1420.32,1025.83 1404.32,1025.5 1388.5,1024.5 Z"/></g>
<g><path style="opacity:0.983" fill="#d9de25" d="M 1146.5,977.5 C 1146.5,993.167 1146.5,1008.83 1146.5,1024.5C 1178.83,1024.5 1211.17,1024.5 1243.5,1024.5C 1259.5,1024.5 1275.5,1024.5 1291.5,1024.5C 1243.34,1025.5 1195,1025.83 1146.5,1025.5C 1146.5,1041.5 1146.5,1057.5 1146.5,1073.5C 1130.5,1073.5 1114.5,1073.5 1098.5,1073.5C 1098.5,1073.17 1098.5,1072.83 1098.5,1072.5C 1114.17,1072.5 1129.83,1072.5 1145.5,1072.5C 1145.5,1056.83 1145.5,1041.17 1145.5,1025.5C 1129.83,1025.5 1114.17,1025.5 1098.5,1025.5C 1066.17,1025.5 1033.83,1025.5 1001.5,1025.5C 1001.5,1041.5 1001.5,1057.5 1001.5,1073.5C 1001.5,1089.83 1001.5,1106.17 1001.5,1122.5C 969.5,1122.5 937.5,1122.5 905.5,1122.5C 905.5,1122.17 905.5,1121.83 905.5,1121.5C 905.5,1105.5 905.5,1089.5 905.5,1073.5C 921.5,1073.5 937.5,1073.5 953.5,1073.5C 953.5,1057.17 953.5,1040.83 953.5,1024.5C 969.167,1024.5 984.833,1024.5 1000.5,1024.5C 1048.83,1024.5 1097.17,1024.5 1145.5,1024.5C 1145.17,1008.66 1145.5,992.991 1146.5,977.5 Z"/></g>
<g><path style="opacity:1" fill="#e0e231" d="M 1098.5,1025.5 C 1114.17,1025.5 1129.83,1025.5 1145.5,1025.5C 1145.5,1041.17 1145.5,1056.83 1145.5,1072.5C 1129.83,1072.5 1114.17,1072.5 1098.5,1072.5C 1098.5,1056.83 1098.5,1041.17 1098.5,1025.5 Z"/></g>
<g><path style="opacity:1" fill="#eee648" d="M 1098.5,1025.5 C 1098.5,1041.17 1098.5,1056.83 1098.5,1072.5C 1098.5,1072.83 1098.5,1073.17 1098.5,1073.5C 1066.17,1073.5 1033.83,1073.5 1001.5,1073.5C 1001.5,1057.5 1001.5,1041.5 1001.5,1025.5C 1033.83,1025.5 1066.17,1025.5 1098.5,1025.5 Z"/></g>
<g><path style="opacity:1" fill="#f39317" d="M 807.5,1073.5 C 823.5,1073.5 839.5,1073.5 855.5,1073.5C 855.5,1089.5 855.5,1105.5 855.5,1121.5C 839.5,1121.5 823.5,1121.5 807.5,1121.5C 807.5,1105.5 807.5,1089.5 807.5,1073.5 Z"/></g>
<g><path style="opacity:1" fill="#dfd015" d="M 905.5,1024.5 C 905.5,1040.83 905.5,1057.17 905.5,1073.5C 905.5,1089.5 905.5,1105.5 905.5,1121.5C 889.167,1121.5 872.833,1121.5 856.5,1121.5C 856.5,1105.5 856.5,1089.5 856.5,1073.5C 872.5,1073.5 888.5,1073.5 904.5,1073.5C 904.17,1056.99 904.504,1040.66 905.5,1024.5 Z"/></g>
<g><path style="opacity:0.999" fill="#cedb16" d="M 1001.5,1073.5 C 1033.83,1073.5 1066.17,1073.5 1098.5,1073.5C 1098.82,1089.91 1098.48,1106.24 1097.5,1122.5C 1065.5,1122.5 1033.5,1122.5 1001.5,1122.5C 1001.5,1106.17 1001.5,1089.83 1001.5,1073.5 Z"/></g>
<g><path style="opacity:0.995" fill="#cbd712" d="M 1098.5,1073.5 C 1114.5,1073.5 1130.5,1073.5 1146.5,1073.5C 1147.17,1073.5 1147.5,1073.83 1147.5,1074.5C 1147.5,1089.83 1147.5,1105.17 1147.5,1120.5C 1163.17,1120.5 1178.83,1120.5 1194.5,1120.5C 1195.47,1136.79 1195.8,1153.12 1195.5,1169.5C 1194.83,1169.5 1194.5,1169.83 1194.5,1170.5C 1178.5,1170.5 1162.5,1170.5 1146.5,1170.5C 1146.5,1186.17 1146.5,1201.83 1146.5,1217.5C 1130.17,1217.5 1113.83,1217.5 1097.5,1217.5C 1097.5,1201.5 1097.5,1185.5 1097.5,1169.5C 1113.5,1169.5 1129.5,1169.5 1145.5,1169.5C 1145.5,1153.83 1145.5,1138.17 1145.5,1122.5C 1129.5,1122.5 1113.5,1122.5 1097.5,1122.5C 1098.48,1106.24 1098.82,1089.91 1098.5,1073.5 Z"/></g>
<g><path style="opacity:1" fill="#e4df32" d="M 1388.5,1073.5 C 1404.5,1073.5 1420.5,1073.5 1436.5,1073.5C 1436.5,1089.5 1436.5,1105.5 1436.5,1121.5C 1420.5,1121.5 1404.5,1121.5 1388.5,1121.5C 1388.5,1105.5 1388.5,1089.5 1388.5,1073.5 Z"/></g>
<g><path style="opacity:1" fill="#dad418" d="M 1436.5,1073.5 C 1452.5,1073.5 1468.5,1073.5 1484.5,1073.5C 1484.5,1089.5 1484.5,1105.5 1484.5,1121.5C 1468.5,1121.5 1452.5,1121.5 1436.5,1121.5C 1436.5,1105.5 1436.5,1089.5 1436.5,1073.5 Z"/></g>
<g><path style="opacity:0.988" fill="#f4b116" d="M 856.5,1121.5 C 872.833,1121.5 889.167,1121.5 905.5,1121.5C 905.5,1121.83 905.5,1122.17 905.5,1122.5C 905.5,1138.17 905.5,1153.83 905.5,1169.5C 905.83,1186.01 905.496,1202.34 904.5,1218.5C 904.5,1202.5 904.5,1186.5 904.5,1170.5C 888.5,1170.5 872.5,1170.5 856.5,1170.5C 856.5,1154.17 856.5,1137.83 856.5,1121.5 Z"/></g>
<g><path style="opacity:1" fill="#efe548" d="M 1387.5,1121.5 C 1387.5,1137.83 1387.5,1154.17 1387.5,1170.5C 1355.5,1170.5 1323.5,1170.5 1291.5,1170.5C 1291.5,1186.5 1291.5,1202.5 1291.5,1218.5C 1259.17,1218.5 1226.83,1218.5 1194.5,1218.5C 1194.5,1202.5 1194.5,1186.5 1194.5,1170.5C 1194.5,1169.83 1194.83,1169.5 1195.5,1169.5C 1227.5,1169.5 1259.5,1169.5 1291.5,1169.5C 1291.5,1153.5 1291.5,1137.5 1291.5,1121.5C 1323.5,1121.5 1355.5,1121.5 1387.5,1121.5 Z"/></g>
<g><path style="opacity:1" fill="#dfd214" d="M 1387.5,1121.5 C 1387.83,1121.5 1388.17,1121.5 1388.5,1121.5C 1404.5,1121.5 1420.5,1121.5 1436.5,1121.5C 1436.5,1137.5 1436.5,1153.5 1436.5,1169.5C 1420.58,1170.48 1404.58,1170.82 1388.5,1170.5C 1388.5,1186.5 1388.5,1202.5 1388.5,1218.5C 1388.17,1218.5 1387.83,1218.5 1387.5,1218.5C 1387.5,1202.5 1387.5,1186.5 1387.5,1170.5C 1387.5,1154.17 1387.5,1137.83 1387.5,1121.5 Z"/></g>
<g><path style="opacity:1" fill="#f09e17" d="M 1436.5,1121.5 C 1452.5,1121.5 1468.5,1121.5 1484.5,1121.5C 1484.5,1137.5 1484.5,1153.5 1484.5,1169.5C 1468.5,1169.5 1452.5,1169.5 1436.5,1169.5C 1436.5,1153.5 1436.5,1137.5 1436.5,1121.5 Z"/></g>
<g><path style="opacity:0.988" fill="#ee5a08" d="M 1484.5,1121.5 C 1500.83,1121.5 1517.17,1121.5 1533.5,1121.5C 1533.5,1137.5 1533.5,1153.5 1533.5,1169.5C 1517.17,1169.5 1500.83,1169.5 1484.5,1169.5C 1484.5,1153.5 1484.5,1137.5 1484.5,1121.5 Z"/></g>
<g><path style="opacity:0.991" fill="#f3a617" d="M 855.5,1170.5 C 855.833,1170.5 856.167,1170.5 856.5,1170.5C 872.5,1170.5 888.5,1170.5 904.5,1170.5C 904.5,1186.5 904.5,1202.5 904.5,1218.5C 904.5,1218.83 904.5,1219.17 904.5,1219.5C 888.497,1219.67 872.497,1219.5 856.5,1219C 855.509,1202.91 855.175,1186.74 855.5,1170.5 Z"/></g>
<g><path style="opacity:1" fill="#f4e750" d="M 1195.5,1170.5 C 1227.17,1170.5 1258.83,1170.5 1290.5,1170.5C 1290.5,1186.17 1290.5,1201.83 1290.5,1217.5C 1258.83,1217.5 1227.17,1217.5 1195.5,1217.5C 1195.5,1201.83 1195.5,1186.17 1195.5,1170.5 Z"/></g>
<g><path style="opacity:1" fill="#f6c013" d="M 1436.5,1169.5 C 1436.5,1185.83 1436.5,1202.17 1436.5,1218.5C 1420.5,1218.5 1404.5,1218.5 1388.5,1218.5C 1388.5,1202.5 1388.5,1186.5 1388.5,1170.5C 1404.58,1170.82 1420.58,1170.48 1436.5,1169.5 Z"/></g>
<g><path style="opacity:1" fill="#f07a10" d="M 1436.5,1169.5 C 1452.5,1169.5 1468.5,1169.5 1484.5,1169.5C 1484.5,1185.83 1484.5,1202.17 1484.5,1218.5C 1468.5,1218.5 1452.5,1218.5 1436.5,1218.5C 1436.5,1202.17 1436.5,1185.83 1436.5,1169.5 Z"/></g>
<g><path style="opacity:0.982" fill="#e94a05" d="M 1484.5,1169.5 C 1500.83,1169.5 1517.17,1169.5 1533.5,1169.5C 1533.5,1186.17 1533.5,1202.83 1533.5,1219.5C 1517.5,1219.5 1501.5,1219.5 1485.5,1219.5C 1485.5,1218.83 1485.17,1218.5 1484.5,1218.5C 1484.5,1202.17 1484.5,1185.83 1484.5,1169.5 Z"/></g>
<g><path style="opacity:0.984" fill="#fe9604" d="M 954.5,1170.5 C 954.5,1186.17 954.5,1201.83 954.5,1217.5C 970.167,1217.5 985.833,1217.5 1001.5,1217.5C 1001.5,1233.83 1001.5,1250.17 1001.5,1266.5C 985.5,1266.5 969.5,1266.5 953.5,1266.5C 953.168,1234.33 953.502,1202.33 954.5,1170.5 Z"/></g>
<g><path style="opacity:1" fill="#f7c112" d="M 905.5,1169.5 C 922.009,1169.17 938.342,1169.5 954.5,1170.5C 953.502,1202.33 953.168,1234.33 953.5,1266.5C 969.5,1266.5 985.5,1266.5 1001.5,1266.5C 1001.5,1266.83 1001.5,1267.17 1001.5,1267.5C 985.5,1267.5 969.5,1267.5 953.5,1267.5C 953.5,1283.5 953.5,1299.5 953.5,1315.5C 953.167,1315.5 952.833,1315.5 952.5,1315.5C 952.5,1299.17 952.5,1282.83 952.5,1266.5C 936.5,1266.5 920.5,1266.5 904.5,1266.5C 904.5,1250.83 904.5,1235.17 904.5,1219.5C 904.5,1219.17 904.5,1218.83 904.5,1218.5C 905.496,1202.34 905.83,1186.01 905.5,1169.5 Z"/></g>
<g><path style="opacity:0.999" fill="#ceda13" d="M 1002.5,1217.5 C 1018.17,1217.5 1033.83,1217.5 1049.5,1217.5C 1049.5,1233.83 1049.5,1250.17 1049.5,1266.5C 1033.83,1266.5 1018.17,1266.5 1002.5,1266.5C 1002.5,1250.17 1002.5,1233.83 1002.5,1217.5 Z"/></g>
<g><path style="opacity:0.999" fill="#dbe029" d="M 1194.5,1170.5 C 1194.5,1186.5 1194.5,1202.5 1194.5,1218.5C 1162.5,1218.5 1130.5,1218.5 1098.5,1218.5C 1098.5,1234.5 1098.5,1250.5 1098.5,1266.5C 1098.5,1282.5 1098.5,1298.5 1098.5,1314.5C 1082.17,1314.5 1065.83,1314.5 1049.5,1314.5C 1049.53,1298.19 1049.53,1282.19 1049.5,1266.5C 1049.5,1250.17 1049.5,1233.83 1049.5,1217.5C 1065.5,1217.5 1081.5,1217.5 1097.5,1217.5C 1113.83,1217.5 1130.17,1217.5 1146.5,1217.5C 1146.5,1201.83 1146.5,1186.17 1146.5,1170.5C 1162.5,1170.5 1178.5,1170.5 1194.5,1170.5 Z"/></g>
<g><path style="opacity:0.998" fill="#cedb13" d="M 1387.5,1170.5 C 1387.5,1186.5 1387.5,1202.5 1387.5,1218.5C 1371.5,1218.5 1355.5,1218.5 1339.5,1218.5C 1339.5,1234.5 1339.5,1250.5 1339.5,1266.5C 1322.99,1266.17 1306.66,1266.5 1290.5,1267.5C 1274.83,1267.5 1259.17,1267.5 1243.5,1267.5C 1243.5,1283.17 1243.5,1298.83 1243.5,1314.5C 1195.17,1314.5 1146.83,1314.5 1098.5,1314.5C 1098.5,1298.5 1098.5,1282.5 1098.5,1266.5C 1130.5,1266.5 1162.5,1266.5 1194.5,1266.5C 1194.5,1250.5 1194.5,1234.5 1194.5,1218.5C 1226.83,1218.5 1259.17,1218.5 1291.5,1218.5C 1291.5,1202.5 1291.5,1186.5 1291.5,1170.5C 1323.5,1170.5 1355.5,1170.5 1387.5,1170.5 Z"/></g>
<g><path style="opacity:1" fill="#f5be11" d="M 1387.5,1218.5 C 1387.83,1218.5 1388.17,1218.5 1388.5,1218.5C 1388.5,1234.5 1388.5,1250.5 1388.5,1266.5C 1372.17,1266.5 1355.83,1266.5 1339.5,1266.5C 1339.5,1250.5 1339.5,1234.5 1339.5,1218.5C 1355.5,1218.5 1371.5,1218.5 1387.5,1218.5 Z"/></g>
<g><path style="opacity:1" fill="#f18a0f" d="M 1388.5,1218.5 C 1404.5,1218.5 1420.5,1218.5 1436.5,1218.5C 1436.5,1234.5 1436.5,1250.5 1436.5,1266.5C 1420.5,1266.5 1404.5,1266.5 1388.5,1266.5C 1388.5,1250.5 1388.5,1234.5 1388.5,1218.5 Z"/></g>
<g><path style="opacity:0.996" fill="#f06a0b" d="M 1436.5,1218.5 C 1452.5,1218.5 1468.5,1218.5 1484.5,1218.5C 1485.17,1218.5 1485.5,1218.83 1485.5,1219.5C 1485.5,1235.5 1485.5,1251.5 1485.5,1267.5C 1469.5,1267.5 1453.5,1267.5 1437.5,1267.5C 1436.83,1267.5 1436.5,1267.17 1436.5,1266.5C 1436.5,1250.5 1436.5,1234.5 1436.5,1218.5 Z"/></g>
<g><path style="opacity:1" fill="#eee547" d="M 1194.5,1218.5 C 1194.5,1234.5 1194.5,1250.5 1194.5,1266.5C 1162.5,1266.5 1130.5,1266.5 1098.5,1266.5C 1098.5,1250.5 1098.5,1234.5 1098.5,1218.5C 1130.5,1218.5 1162.5,1218.5 1194.5,1218.5 Z"/></g>
<g><path style="opacity:0.992" fill="#f8bd0f" d="M 904.5,1266.5 C 920.5,1266.5 936.5,1266.5 952.5,1266.5C 952.5,1282.83 952.5,1299.17 952.5,1315.5C 936.5,1315.5 920.5,1315.5 904.5,1315.5C 904.5,1299.17 904.5,1282.83 904.5,1266.5 Z"/></g>
<g><path style="opacity:1" fill="#dfdd2a" d="M 1001.5,1217.5 C 1001.83,1217.5 1002.17,1217.5 1002.5,1217.5C 1002.5,1233.83 1002.5,1250.17 1002.5,1266.5C 1018.17,1266.5 1033.83,1266.5 1049.5,1266.5C 1049.53,1282.19 1049.53,1298.19 1049.5,1314.5C 1033.5,1314.5 1017.5,1314.5 1001.5,1314.5C 1001.5,1298.83 1001.5,1283.17 1001.5,1267.5C 1001.5,1267.17 1001.5,1266.83 1001.5,1266.5C 1001.5,1250.17 1001.5,1233.83 1001.5,1217.5 Z"/></g>
<g><path style="opacity:0.994" fill="#f5770e" d="M 1388.5,1266.5 C 1404.5,1266.5 1420.5,1266.5 1436.5,1266.5C 1436.5,1267.17 1436.83,1267.5 1437.5,1267.5C 1437.5,1283.5 1437.5,1299.5 1437.5,1315.5C 1421.17,1315.5 1404.83,1315.5 1388.5,1315.5C 1388.5,1299.17 1388.5,1282.83 1388.5,1266.5 Z"/></g>
<g><path style="opacity:0.987" fill="#e5d21c" d="M 1001.5,1267.5 C 1001.5,1283.17 1001.5,1298.83 1001.5,1314.5C 1017.5,1314.5 1033.5,1314.5 1049.5,1314.5C 1065.83,1314.5 1082.17,1314.5 1098.5,1314.5C 1146.83,1314.5 1195.17,1314.5 1243.5,1314.5C 1162.67,1315.5 1081.67,1315.83 1000.5,1315.5C 984.833,1315.5 969.167,1315.5 953.5,1315.5C 953.5,1299.5 953.5,1283.5 953.5,1267.5C 969.5,1267.5 985.5,1267.5 1001.5,1267.5 Z"/></g>
<g><path style="opacity:0.982" fill="#f6b80f" d="M 1339.5,1266.5 C 1339.5,1282.5 1339.5,1298.5 1339.5,1314.5C 1323.17,1314.5 1306.83,1314.5 1290.5,1314.5C 1290.5,1298.83 1290.5,1283.17 1290.5,1267.5C 1306.66,1266.5 1322.99,1266.17 1339.5,1266.5 Z"/></g>
<g><path style="opacity:1" fill="#f1820c" d="M 1339.5,1266.5 C 1355.83,1266.5 1372.17,1266.5 1388.5,1266.5C 1388.5,1282.83 1388.5,1299.17 1388.5,1315.5C 1372.5,1315.5 1356.5,1315.5 1340.5,1315.5C 1339.83,1315.5 1339.5,1315.17 1339.5,1314.5C 1339.5,1298.5 1339.5,1282.5 1339.5,1266.5 Z"/></g>
<g><path style="opacity:0.993" fill="#f7c113" d="M 1243.5,1314.5 C 1259.17,1314.5 1274.83,1314.5 1290.5,1314.5C 1306.83,1314.5 1323.17,1314.5 1339.5,1314.5C 1339.5,1315.17 1339.83,1315.5 1340.5,1315.5C 1340.5,1331.83 1340.5,1348.17 1340.5,1364.5C 1227.5,1364.67 1114.5,1364.5 1001.5,1364C 1000.51,1347.91 1000.18,1331.74 1000.5,1315.5C 1081.67,1315.83 1162.67,1315.5 1243.5,1314.5 Z"/></g>
</svg>
